HIERARCHY
ROOT hip
{
	OFFSET 0.000000 0.000000 0.000000 
	CHANNELS 6 Xposition Yposition Zposition Xrotation Zrotation Yrotation
	JOINT abdomen
	{
		OFFSET 0.000000 3.402643 0.000000 
		CHANNELS 3 Xrotation Zrotation Yrotation
		JOINT chest
		{
			OFFSET 0.000000 8.438565 -0.680529 
			CHANNELS 3 Xrotation Zrotation Yrotation
			JOINT neck
			{
				OFFSET 0.000000 10.207942 -0.272212 
				CHANNELS 3 Xrotation Zrotation Yrotation
				JOINT head
				{
					OFFSET 0.000000 3.130431 0.000000 
					CHANNELS 3 Xrotation Zrotation Yrotation
					End Site
					{
						OFFSET 0.000000 3.130435 0.000000 
					}
				}
			}
			JOINT lCollar
			{
				OFFSET 3.470700 6.669187 -0.816635 
				CHANNELS 3 Yrotation Zrotation Xrotation
				JOINT lShldr
				{
					OFFSET 3.198488 0.000000 0.000000 
					CHANNELS 3 Zrotation Yrotation Xrotation
					JOINT lForeArm
					{
						OFFSET 10.139888 0.000000 0.000000 
						CHANNELS 3 Yrotation Zrotation Xrotation
						JOINT lHand
						{
							OFFSET 8.370511 0.000000 0.000000 
							CHANNELS 3 Zrotation Yrotation Xrotation
							End Site
							{
								OFFSET 4.083176 0.000000 0.000000 
							}
						}
					}
				}
			}
			JOINT rCollar
			{
				OFFSET -3.470700 6.669187 -0.816635 
				CHANNELS 3 Yrotation Zrotation Xrotation
				JOINT rShldr
				{
					OFFSET -3.198488 0.000000 0.000000 
					CHANNELS 3 Zrotation Yrotation Xrotation
					JOINT rForeArm
					{
						OFFSET -10.139888 0.000000 0.000000 
						CHANNELS 3 Yrotation Zrotation Xrotation
						JOINT rHand
						{
							OFFSET -8.370511 0.000000 0.000000 
							CHANNELS 3 Zrotation Yrotation Xrotation
							End Site
							{
								OFFSET -4.083176 0.000000 0.000000 
							}
						}
					}
				}
			}
		}
	}
	JOINT lThigh
	{
		OFFSET 5.308129 -1.633274 1.361059 
		CHANNELS 3 Xrotation Zrotation Yrotation
		JOINT lShin
		{
			OFFSET -2.041588 -20.007561 0.000000 
			CHANNELS 3 Xrotation Zrotation Yrotation
			JOINT lFoot
			{
				OFFSET 0.000000 -19.190928 -1.224953 
				CHANNELS 3 Xrotation Yrotation Zrotation
				End Site
				{
					OFFSET 0.000000 -2.449906 4.627600 
				}
			}
		}
	}
	JOINT rThigh
	{
		OFFSET -5.308129 -1.633274 1.361059 
		CHANNELS 3 Xrotation Zrotation Yrotation
		JOINT rShin
		{
			OFFSET 2.041588 -20.007561 0.000000 
			CHANNELS 3 Xrotation Zrotation Yrotation
			JOINT rFoot
			{
				OFFSET 0.000000 -19.190928 -1.224953 
				CHANNELS 3 Xrotation Yrotation Zrotation
				End Site
				{
					OFFSET 0.000000 -2.449906 4.627600 
				}
			}
		}
	}
}
MOTION
Frames: 14
Frame Time: 0.033333
31.137646 33.689098 -51.136593 16.497374 -15.652003 43.886864 40.491188 -3.274951 -6.140395 -20.839844 0.000000 0.000000 -43.329464 10.593638 -69.150421 -2.520846 -1.255050 0.218350 -4.754609 -0.109183 -0.002653 -57.967243 -13.247014 -2.588311 -87.486694 -14.801778 0.611726 18.853655 -6.253100 -1.224457 4.754609 0.109183 -0.002672 36.885181 -4.433138 -21.628380 112.499733 -1.026178 15.282282 18.409012 28.805004 28.145145 -76.696022 30.750816 -3.446037 28.269915 -3.341205 -15.664166 16.521786 -20.871662 -13.234926 -36.909763 -66.291016 -31.945276 44.172279 18.614254 2.011029 6.474842 19.848173 14.366452 
30.977222 33.268230 -51.038101 15.023399 -15.931099 49.203140 41.762032 -2.345351 -4.867839 -20.839844 0.000000 0.000000 -42.001808 10.004326 -69.216858 -2.520846 -1.255050 0.218350 -4.754609 -0.109183 -0.002653 -54.637344 -13.370521 -4.557889 -90.230484 -13.752969 -2.730667 16.519606 -4.979853 -4.896014 4.754609 0.109183 -0.002672 37.737244 -2.851512 -21.374043 101.096725 -1.262011 17.563238 18.179810 27.876190 31.579367 -75.571388 28.308880 -2.119663 24.327526 -4.126971 -15.889468 17.697962 -23.791235 -18.935560 -30.801908 -68.340004 -35.831348 47.015400 17.836000 2.182871 4.814947 17.071926 17.076290 
30.876194 32.798626 -51.046730 15.800517 -15.969178 51.427116 41.457718 -2.598080 -4.329274 -20.839844 0.000000 0.000000 -42.171528 9.051395 -70.288452 -2.520846 -1.255050 0.218350 -4.754609 -0.109183 -0.002653 -49.572006 -10.966477 -7.587230 -90.550880 -12.595559 -3.760638 17.558136 -5.369738 -6.385988 4.754609 0.109183 -0.002672 37.815060 -1.844430 -21.271858 88.253632 -1.358191 18.986631 14.185214 28.568027 33.108620 -75.544449 26.776640 -1.359655 22.406948 -4.565357 -15.038127 18.178625 -24.320457 -21.562244 -31.471916 -70.756554 -35.139568 49.605083 16.688313 3.432761 2.067940 15.675482 19.446566 
30.913761 32.335110 -51.246758 15.855893 -14.991878 51.480598 41.871647 -1.755000 -3.359357 -20.839844 0.000000 0.000000 -42.149780 7.654104 -69.537743 -2.520846 -1.255050 0.218350 -4.754609 -0.109183 -0.002653 -44.654671 -8.048172 -11.061988 -86.714470 -10.470892 -4.867242 16.081804 -4.897886 -8.918108 4.754609 0.109183 -0.002672 37.810616 -2.391862 -21.216265 78.100296 -1.148241 17.048923 10.054688 28.025736 29.165195 -76.457756 26.384182 -1.713883 25.125095 -4.356492 -15.285554 16.873793 -23.908237 -23.717617 -34.445446 -72.235382 -32.425694 51.113579 15.498655 4.744082 1.689088 15.528980 19.500423 
31.038141 31.801540 -51.482319 17.058815 -13.382380 49.189178 41.582283 -2.554591 -3.021795 -20.839844 0.000000 0.000000 -43.088570 6.558960 -70.000084 -2.520846 -1.255050 0.218350 -4.754609 -0.109183 -0.002653 -41.392899 -4.592485 -14.452009 -77.643143 -7.320477 -5.465381 12.710877 -7.341133 -11.273513 4.754609 0.109183 -0.002672 39.487747 -2.844281 -21.486799 68.230789 -1.830096 13.440293 6.528567 26.491917 23.327024 -77.627594 27.246584 -2.186355 29.550835 -4.173708 -14.913404 14.859415 -22.455505 -24.751770 -43.839447 -74.072792 -25.156414 52.150978 14.556313 6.380008 2.631062 16.632572 18.477102 
31.140188 31.338541 -51.862068 18.013786 -11.401532 46.213692 41.425072 -1.058768 -2.872581 -20.839844 0.000000 0.000000 -43.496086 4.975027 -68.700874 -2.520846 -1.255050 0.218350 -4.754609 -0.109183 -0.002653 -39.059677 -1.802618 -17.508360 -63.842815 -3.929195 -7.958003 7.452446 -10.476697 -15.111013 4.754609 0.109183 -0.002672 39.078369 -4.062865 -21.204098 58.891449 -0.927218 8.208722 2.269634 23.555536 13.985128 -78.379753 27.809374 -3.351674 34.107731 -3.117588 -14.917054 11.887098 -19.798695 -26.041279 -54.338253 -75.365486 -17.274641 52.279503 14.334146 7.495994 4.460911 18.316019 17.576635 
31.199078 30.933409 -52.229118 19.359793 -8.835058 41.636665 41.403473 -0.907174 -3.554670 -20.839844 0.000000 0.000000 -43.969925 5.159623 -66.063797 -2.520846 -1.255050 0.218350 -4.754609 -0.109183 -0.002653 -36.996704 -1.003367 -20.833294 -50.253170 -0.261279 -9.248116 4.582811 -11.814918 -13.994734 4.754609 0.109183 -0.002672 40.163380 -3.959451 -20.931433 47.948441 -0.600885 2.365126 -1.633239 21.739971 4.455552 -78.386101 30.116304 -3.591625 38.868267 -2.923560 -14.260716 8.814093 -17.955366 -26.014904 -69.020752 -75.629799 -6.427779 52.135590 14.776383 9.079532 6.847684 21.411644 14.378540 
31.222429 30.599356 -52.658615 20.632082 -6.154080 36.604332 40.811844 -0.017039 -3.361798 -20.839844 0.000000 0.000000 -44.817730 5.102475 -63.261841 -2.520846 -1.255050 0.218350 -4.754609 -0.109183 -0.002653 -34.835510 -2.454054 -23.478809 -38.698517 1.826677 -9.270807 4.138269 -13.728319 -10.079794 4.754609 0.109183 -0.002672 40.291019 -3.794202 -21.408051 35.135616 -0.733786 -3.542150 -1.759609 19.585571 -3.383029 -77.944801 32.439705 -3.747706 43.103569 -2.708053 -13.283279 6.643628 -15.728819 -23.733458 -82.747643 -74.360580 3.660691 51.538517 14.805663 7.489619 10.276843 19.582264 10.827892 
31.173693 30.360746 -53.080498 22.083275 -2.534048 31.413458 41.330048 0.684008 -4.320040 -20.839844 0.000000 0.000000 -45.165958 5.467966 -57.660961 -2.520846 -1.255050 0.218350 -4.754609 -0.109183 -0.002653 -32.402424 -5.853207 -27.947430 -31.874212 4.585223 -13.802536 0.934546 -13.163887 -8.552154 4.754609 0.109183 -0.002672 37.567692 6.229309 -20.115126 2.470786 -0.290707 -7.928121 -0.804658 29.664747 -11.805868 -75.896133 34.305637 -3.198130 46.385605 -2.747243 -11.784849 4.274918 -13.165616 -23.042437 -97.004639 -72.584244 13.946621 51.630489 14.433640 4.096196 12.472343 14.115294 6.526091 
31.010729 29.975920 -53.495274 23.230671 1.462799 26.418848 40.872334 1.025965 -5.203060 -20.839844 0.000000 0.000000 -43.496712 6.255071 -51.214069 -2.520846 -1.255050 0.218350 -4.754609 -0.109183 -0.002653 -27.720131 -10.052544 -30.096975 -29.291969 4.786892 -15.357091 -0.043223 -11.717477 -8.916066 4.754609 0.109183 -0.002672 41.572884 0.686151 -19.543356 2.427439 -0.310133 -9.647907 -1.698986 22.478989 -14.675766 -73.239288 36.170437 -2.239259 49.260693 -3.021570 -10.310780 2.172577 -10.900802 -23.141386 -110.399384 -70.122940 22.902847 53.461071 14.129093 1.471795 10.655622 8.844365 2.587855 
30.743637 29.478382 -53.729824 23.031082 4.972191 21.309889 41.985363 2.391658 -6.350484 -20.839844 0.000000 0.000000 -43.208492 8.408552 -45.248520 -2.520846 -1.255050 0.218350 -4.754609 -0.109183 -0.002653 -21.973503 -16.259510 -33.312653 -28.847389 5.511994 -16.320015 0.014964 -11.829599 -8.157435 4.754609 0.109183 -0.002672 46.267094 -2.558169 -18.596764 2.417156 -0.302628 -9.442733 -1.826042 15.282394 -14.989851 -70.136909 39.101704 -1.136696 52.108669 -3.314180 -9.686500 -0.292944 -9.634810 -23.687222 -118.410866 -67.819725 27.149006 56.744701 14.510662 -1.285792 6.861793 3.621100 1.641361 
30.512997 28.823483 -53.785160 21.718290 8.874924 16.875948 42.854885 5.513994 -7.168869 -20.839844 0.000000 0.000000 -41.818111 9.408492 -38.256161 -2.520846 -1.255050 0.218350 -4.754609 -0.109183 -0.002653 -16.783712 -24.463324 -34.858318 -29.438454 4.862370 -14.035933 2.686753 -12.471106 -7.204628 4.754609 0.109183 -0.002672 49.358112 -5.956109 -18.858021 2.497751 -0.290837 -7.039145 -2.073157 9.003495 -10.645313 -65.401436 41.244301 0.601665 54.671406 -3.432253 -8.967723 -2.279382 -8.097118 -24.987007 -125.831169 -65.905800 31.576517 60.878574 14.170767 -4.148940 2.633420 -2.628630 -1.373729 
30.068726 27.987841 -53.567875 19.740904 13.192093 12.612788 45.200928 8.530826 -9.581322 -20.839844 0.000000 0.000000 -41.654842 10.676103 -30.393618 -2.520846 -1.255050 0.218350 -4.754609 -0.109183 -0.002653 -7.901588 -34.806721 -38.620892 -31.110867 3.828014 -10.391756 4.226320 -12.452384 -5.513148 4.754609 0.109183 -0.002672 52.369789 -4.840209 -18.651125 2.490012 -0.313794 -7.879597 -3.149380 5.701165 -10.568645 -58.892624 43.366001 3.639261 56.671150 -4.194132 -8.223773 -3.344392 -7.298620 -24.915161 -132.736267 -64.275055 35.518414 65.168747 14.176848 -5.993606 -0.577479 -6.888840 -4.777606 
29.752594 27.207539 -52.953579 15.728769 17.876640 7.217523 45.166725 12.221786 -13.232704 -20.839844 0.000000 0.000000 -37.622112 11.726736 -20.365208 -2.520846 -1.255050 0.218350 -4.754609 -0.109183 -0.002653 -0.457137 -44.696480 -40.058590 -34.240082 0.364344 -3.296293 7.089038 -14.001389 -4.384623 4.754609 0.109183 -0.002672 54.111931 -3.286191 -18.933683 2.511308 -0.342126 -8.651476 -2.960380 6.056721 -9.501982 -48.728916 44.695553 7.858356 58.816364 -4.389482 -7.431293 -5.596247 -5.356155 -27.849621 -136.653000 -63.337688 37.229004 68.164665 14.859524 -5.963262 -0.711068 -7.446647 -9.242147 
